<svg width="106" height="29" viewBox="0 0 106 29" fill="none" xmlns="http://www.w3.org/2000/svg">
<path d="M1.82401 22.8197C0.608004 22.8197 0 22.5027 0 21.8689V2.83548C0 2.41667 0.0965987 2.11671 0.289796 1.9356C0.482994 1.74317 0.789837 1.64696 1.21033 1.64696H7.58584C9.47236 1.64696 11.1429 2.10539 12.5976 3.02225C14.0523 3.93911 14.7796 5.68228 14.7796 8.25176C14.7796 10.0176 14.3591 11.3929 13.5181 12.3776C12.6772 13.3511 11.7282 14.0076 10.6713 14.3472C9.62578 14.6868 8.69388 14.8566 7.87564 14.8566H4.67083V21.8689C4.67083 22.5027 4.06283 22.8197 2.84682 22.8197H1.82401ZM7.36423 10.8665C8.09156 10.8665 8.71093 10.6741 9.22234 10.2892C9.74511 9.90437 10.0065 9.22521 10.0065 8.25176C10.0065 7.26698 9.74511 6.5765 9.22234 6.18033C8.69957 5.78415 8.0802 5.58607 7.36423 5.58607H4.67083V10.8665H7.36423Z" fill="#2ACFC5"/>
<path d="M18.1044 4.38056C17.468 4.38056 17.0021 4.30133 16.7066 4.14286C16.4225 3.98439 16.2804 3.74102 16.2804 3.41276V0.984778C16.2804 0.656518 16.4281 0.413154 16.7236 0.254684C17.0191 0.0848946 17.4794 0 18.1044 0H18.9397C19.5648 0 20.025 0.0848946 20.3205 0.254684C20.616 0.413154 20.7637 0.656518 20.7637 0.984778V3.41276C20.7637 3.74102 20.616 3.98439 20.3205 4.14286C20.0364 4.30133 19.5761 4.38056 18.9397 4.38056H18.1044ZM18.1044 22.8197C16.8884 22.8197 16.2804 22.5027 16.2804 21.8689V7.87822C16.2804 7.56128 16.4281 7.32358 16.7236 7.16511C17.0191 7.00664 17.4794 6.9274 18.1044 6.9274H18.9397C19.5648 6.9274 20.025 7.00664 20.3205 7.16511C20.616 7.32358 20.7637 7.56128 20.7637 7.87822V21.8689C20.7637 22.5027 20.1557 22.8197 18.9397 22.8197H18.1044Z" fill="#2ACFC5"/>
<path d="M30.7368 23.0234C28.1571 23.0234 26.2421 22.3612 24.992 21.0369C23.7419 19.7012 23.1169 17.6807 23.1169 14.9754C23.1169 12.2475 23.7476 10.193 25.0091 8.81206C26.2705 7.43111 28.2366 6.74063 30.9073 6.74063C31.6687 6.74063 32.4358 6.82553 33.2086 6.99532C33.9927 7.15379 34.6405 7.39149 35.1519 7.70843C35.6747 8.01405 35.9361 8.38759 35.9361 8.82904C35.9361 9.01015 35.8338 9.29313 35.6292 9.67799C35.436 10.0628 35.2088 10.4081 34.9474 10.7137C34.6974 11.008 34.4871 11.1552 34.3166 11.1552C34.2371 11.1552 34.0609 11.0759 33.7882 10.9174C33.3563 10.7137 32.9472 10.5552 32.5608 10.442C32.1744 10.3175 31.7028 10.2553 31.1459 10.2553C29.9527 10.2553 29.0833 10.6345 28.5378 11.3929C27.9923 12.1399 27.7195 13.2945 27.7195 14.8566C27.7195 16.4299 27.9752 17.5958 28.4866 18.3542C29.0094 19.1013 29.839 19.4748 30.9755 19.4748C31.6005 19.4748 32.146 19.4126 32.612 19.2881C33.0779 19.1522 33.5211 18.9824 33.9416 18.7787C34.0212 18.7447 34.1178 18.7051 34.2314 18.6598C34.3451 18.6146 34.4303 18.5919 34.4871 18.5919C34.6917 18.5919 34.9133 18.7391 35.1519 19.0334C35.402 19.3164 35.6122 19.6446 35.7827 20.0182C35.9645 20.3917 36.0554 20.6803 36.0554 20.8841C36.0554 21.4048 35.7145 21.8236 35.0326 22.1405C34.3507 22.4575 33.5893 22.6838 32.7483 22.8197C31.9074 22.9555 31.2368 23.0234 30.7368 23.0234Z" fill="#2ACFC5"/>
<path d="M39.67 22.8197C38.454 22.8197 37.846 22.5027 37.846 21.8689V0.984778C37.846 0.656518 37.9938 0.413154 38.2892 0.254684C38.5847 0.0848946 39.045 0 39.67 0H40.5053C41.7213 0 42.3293 0.328259 42.3293 0.984778V12.921L42.4316 12.9549L46.1137 7.50468C46.2728 7.26698 46.4944 7.11417 46.7786 7.04625C47.0627 6.96702 47.4547 6.9274 47.9548 6.9274H49.0799C50.2163 6.9274 50.7846 7.08021 50.7846 7.38583C50.7846 7.5443 50.688 7.73673 50.4948 7.96312L46.3012 13.9567L51.2278 21.733C51.3982 22.016 51.4835 22.2254 51.4835 22.3612C51.4835 22.6669 50.9039 22.8197 49.7447 22.8197H48.4832C47.9946 22.8197 47.5968 22.7801 47.29 22.7008C46.9831 22.6216 46.7729 22.4688 46.6592 22.2424L42.4316 15.298L42.3293 15.3489V21.8689C42.3293 22.5027 41.7213 22.8197 40.5053 22.8197H39.67Z" fill="#2ACFC5"/>
<path d="M63.6324 23.0234C61.7914 23.0234 60.2117 22.7348 58.8934 22.1575C57.5865 21.5802 56.5864 20.7482 55.8932 19.6616C55.1999 18.5636 54.8533 17.2449 54.8533 15.7055V2.54684C54.8533 2.21858 55.001 1.97521 55.2965 1.81674C55.592 1.64696 56.0523 1.56206 56.6773 1.56206H57.7001C58.3252 1.56206 58.7798 1.64696 59.0639 1.81674C59.3593 1.97521 59.5071 2.21858 59.5071 2.54684V15.3999C59.5071 16.1017 59.6776 16.7299 60.0185 17.2845C60.3708 17.8392 60.8595 18.275 61.4845 18.5919C62.1096 18.8975 62.8255 19.0504 63.6324 19.0504C64.4393 19.0504 65.1553 18.8975 65.7803 18.5919C66.4167 18.275 66.9111 17.8392 67.2634 17.2845C67.6157 16.7299 67.7918 16.1017 67.7918 15.3999V2.54684C67.7918 2.21858 67.9339 1.97521 68.218 1.81674C68.5135 1.64696 68.9738 1.56206 69.5988 1.56206H70.6046C71.2296 1.56206 71.6842 1.64696 71.9683 1.81674C72.2638 1.97521 72.4115 2.21858 72.4115 2.54684V15.7055C72.4115 17.2449 72.0649 18.5636 71.3717 19.6616C70.6784 20.7482 69.6727 21.5802 68.3544 22.1575C67.0475 22.7348 65.4735 23.0234 63.6324 23.0234Z" fill="#2ACFC5"/>
<path d="M76.8069 29C76.1818 29 75.7216 28.9151 75.4261 28.7453C75.1306 28.5868 74.9829 28.3435 74.9829 28.0152V12.2927C74.9829 11.3872 74.9545 10.6797 74.8976 10.1704C74.8522 9.64969 74.7897 9.15164 74.7101 8.67623C74.6533 8.37061 74.6249 8.15554 74.6249 8.03103C74.6249 7.80465 74.8351 7.62354 75.2556 7.48771C75.6761 7.34055 76.1534 7.23302 76.6876 7.16511C77.2331 7.09719 77.6706 7.06323 78.0002 7.06323C78.3638 7.06323 78.6139 7.19906 78.7502 7.47073C78.898 7.73107 79.0287 8.11027 79.1423 8.60831L79.2275 8.99883C79.5798 8.33099 80.114 7.78767 80.8299 7.36885C81.5573 6.95004 82.3755 6.74063 83.2847 6.74063C84.387 6.74063 85.3644 7.05757 86.2167 7.69145C87.0691 8.32533 87.7339 9.25917 88.2112 10.493C88.6999 11.7155 88.9442 13.1813 88.9442 14.8905C88.9442 16.5318 88.6942 17.9637 88.1942 19.1862C87.6941 20.4087 86.9668 21.3538 86.0122 22.0217C85.0576 22.6895 83.9097 23.0234 82.5687 23.0234C81.4209 23.0234 80.381 22.7065 79.4492 22.0726V28.0152C79.4492 28.3435 79.3014 28.5868 79.0059 28.7453C78.7218 28.9151 78.2672 29 77.6422 29H76.8069ZM81.58 19.4748C83.4552 19.4748 84.3927 17.9467 84.3927 14.8905C84.3927 11.8909 83.5802 10.3911 81.955 10.3911C81.0004 10.3911 80.1651 10.9854 79.4492 12.1739V18.8975C80.1537 19.2824 80.864 19.4748 81.58 19.4748Z" fill="#2ACFC5"/>
<path fill-rule="evenodd" clip-rule="evenodd" d="M96.7766 10.5375V9.82061C96.7766 9.11813 97.0568 8.44442 97.5555 7.94769C98.0542 7.45096 98.7307 7.1719 99.4359 7.1719C100.141 7.1719 100.818 7.45096 101.316 7.94769C101.815 8.44442 102.095 9.11813 102.095 9.82061V10.5375C103.008 10.5651 103.567 10.6625 103.993 11.015C104.584 11.5038 104.74 12.3302 105.051 13.9837L105.583 16.809C106.02 19.1342 106.239 20.2968 105.601 21.0625C104.963 21.8281 103.775 21.8281 101.4 21.8281H97.4716C95.096 21.8281 93.9088 21.8281 93.2706 21.0625C92.6324 20.2968 92.8522 19.1342 93.289 16.809L93.8209 13.9837C94.1329 12.3309 94.2882 11.5038 94.879 11.015C95.3051 10.6625 95.864 10.5651 96.7766 10.5375ZM97.8404 9.82061C97.8404 9.39912 98.0085 8.99489 98.3077 8.69686C98.6069 8.39882 99.0128 8.23138 99.4359 8.23138C99.8591 8.23138 100.265 8.39882 100.564 8.69686C100.863 8.99489 101.032 9.39912 101.032 9.82061V10.5269H97.8404V9.82061ZM102.088 13.9717C102.077 13.903 102.052 13.8373 102.015 13.7783C101.978 13.7192 101.93 13.668 101.873 13.6275C101.816 13.5871 101.752 13.5581 101.684 13.5424C101.616 13.5267 101.545 13.5245 101.476 13.5359C101.407 13.5473 101.341 13.5721 101.282 13.6089C101.223 13.6457 101.171 13.6938 101.131 13.7504C101.09 13.807 101.061 13.871 101.045 13.9388C101.029 14.0066 101.027 14.0768 101.039 14.1454L101.748 18.3834C101.759 18.452 101.784 18.5177 101.821 18.5768C101.858 18.6358 101.906 18.687 101.963 18.7275C102.02 18.768 102.084 18.7969 102.152 18.8126C102.22 18.8284 102.291 18.8306 102.36 18.8192C102.429 18.8078 102.495 18.7829 102.554 18.7461C102.613 18.7093 102.665 18.6612 102.705 18.6046C102.746 18.548 102.775 18.484 102.791 18.4162C102.807 18.3485 102.809 18.2782 102.797 18.2096L102.088 13.9717ZM97.3957 13.5359C97.3268 13.5244 97.2563 13.5267 97.1882 13.5424C97.1202 13.5581 97.0559 13.587 96.9991 13.6275C96.9422 13.668 96.894 13.7192 96.857 13.7782C96.8201 13.8373 96.7952 13.903 96.7837 13.9717L96.0746 18.2096C96.0631 18.2782 96.0654 18.3485 96.0811 18.4162C96.0969 18.484 96.126 18.548 96.1666 18.6046C96.2072 18.6612 96.2587 18.7093 96.3179 18.7461C96.3772 18.7829 96.4432 18.8078 96.5121 18.8192C96.581 18.8306 96.6515 18.8284 96.7196 18.8126C96.7876 18.7969 96.8519 18.768 96.9087 18.7275C96.9656 18.687 97.0138 18.6358 97.0508 18.5768C97.0877 18.5177 97.1127 18.452 97.1241 18.3834L97.8333 14.1454C97.8447 14.0768 97.8425 14.0066 97.8267 13.9388C97.8109 13.871 97.7819 13.807 97.7413 13.7504C97.7006 13.6938 97.6492 13.6457 97.5899 13.6089C97.5306 13.5721 97.4646 13.5473 97.3957 13.5359Z" fill="#FDC22A"/>
</svg>
